<?xml version="1.0" standalone="no"?>
<!DOCTYPE svg PUBLIC "-//W3C//DTD SVG 20010904//EN"
 "http://www.w3.org/TR/2001/REC-SVG-20010904/DTD/svg10.dtd">
<svg version="1.0" xmlns="http://www.w3.org/2000/svg"
 width="700.000000pt" height="700.000000pt" viewBox="0 0 700.000000 700.000000"
 preserveAspectRatio="xMidYMid meet">
<metadata>
Created by potrace 1.14, written by Peter Selinger 2001-2017
</metadata>
<g transform="translate(0.000000,700.000000) scale(0.100000,-0.100000)"
fill="#000000" stroke="none">
<path d="M102 6429 c-26 -13 -55 -39 -70 -62 l-27 -41 0 -305 0 -306 24 -36
c14 -19 41 -46 60 -60 36 -24 36 -24 358 -27 l322 -3 -2 -226 -2 -226 -80 -26
c-104 -34 -167 -72 -236 -142 -218 -222 -208 -574 22 -782 68 -62 163 -113
242 -129 l55 -12 -1 -640 -2 -639 -50 -12 c-292 -67 -478 -364 -410 -654 50
-209 215 -366 437 -415 l26 -6 -1 -212 -2 -212 -305 -1 c-168 -1 -316 -5 -330
-9 -44 -15 -92 -57 -111 -100 -17 -37 -19 -69 -19 -321 0 -251 2 -284 19 -320
22 -48 53 -78 103 -98 32 -14 130 -16 714 -16 736 0 716 -1 776 56 59 56 61
71 61 378 0 169 -4 290 -11 306 -15 37 -60 87 -96 107 -27 14 -71 17 -336 18
-168 1 -310 2 -315 3 -7 1 -10 74 -10 213 l0 211 25 4 c195 27 381 200 435
403 23 88 14 239 -19 325 -64 167 -215 300 -385 339 l-56 13 0 632 c0 348 2
636 5 640 3 4 35 15 73 25 70 19 161 69 219 121 114 103 176 246 176 405 0
152 -49 270 -159 382 -72 73 -170 128 -263 148 l-51 10 0 230 0 229 321 3 321
3 41 29 c25 17 50 46 64 74 21 44 22 57 22 329 l-1 282 -29 48 c-20 33 -43 55
-74 71 l-44 22 -691 0 c-685 0 -690 0 -733 -21z"/>
<path d="M5171 5070 c0 -879 3 -1140 12 -1141 7 -1 342 -2 744 -3 481 -1 734
2 736 9 2 6 3 93 3 195 l-1 184 -475 1 -475 0 -1 291 0 291 388 0 c214 1 392
3 395 6 5 5 7 229 4 342 l-1 30 -392 0 -393 0 0 275 0 274 448 0 c304 0 447 3
448 11 4 27 8 60 28 193 12 79 21 152 21 162 0 19 -16 20 -744 20 l-745 0 0
-1140z"/>
<path d="M2284 5340 c-29 -11 -64 -62 -64 -93 0 -40 17 -74 46 -93 24 -16 77
-18 677 -18 639 -1 652 -1 682 19 59 40 62 128 7 170 -26 19 -44 20 -677 21
-357 1 -660 -2 -671 -6z"/>
<path d="M2276 4711 c-40 -21 -58 -56 -52 -104 5 -45 21 -66 61 -82 22 -9 275
-11 987 -11 l958 1 32 32 c44 45 44 102 -1 147 l-31 31 -962 1 c-849 0 -964
-2 -992 -15z"/>
<path d="M2292 4098 c-46 -12 -67 -43 -67 -99 0 -40 5 -54 28 -76 l27 -28 958
-2 c648 -1 968 2 991 9 39 12 73 75 64 121 -6 32 -55 76 -86 78 -99 6 -1893 2
-1915 -3z"/>
<path d="M5238 3440 l-67 -5 2 -1135 2 -1135 745 -3 746 -2 -1 192 0 193 -415
2 c-228 1 -442 2 -476 3 l-61 0 0 290 0 290 394 0 393 0 1 23 c1 32 1 286 0
323 l-1 30 -392 1 -393 0 -1 275 0 275 443 0 c244 0 445 2 448 4 2 3 7 23 10
45 3 21 10 64 15 94 5 30 12 71 14 90 11 88 19 136 23 143 2 4 -4 7 -14 7
-192 4 -1367 4 -1415 0z"/>
<path d="M2318 2982 c-26 -2 -47 -13 -68 -33 -41 -42 -42 -96 -1 -141 l29 -33
652 -3 c575 -2 655 -1 684 13 63 30 77 116 27 166 -16 16 -40 29 -53 30 -96 2
-1241 3 -1270 1z"/>
<path d="M2325 2359 c-49 -6 -80 -25 -94 -56 -24 -52 -7 -109 39 -136 26 -16
110 -17 985 -17 1023 0 998 -1 1024 48 31 57 8 132 -46 153 -22 8 -439 16
-478 8 -5 -1 -14 0 -20 1 -22 5 -937 2 -942 -3 -3 -3 -11 -3 -19 0 -19 7 -400
9 -449 2z"/>
<path d="M2268 1723 c-72 -45 -59 -162 20 -187 13 -4 453 -8 979 -8 928 0 957
1 982 20 64 47 57 143 -12 175 -32 16 -116 17 -989 17 -867 -1 -955 -2 -980
-17z"/>
<path d="M4872 940 c-6 -4 -8 -225 -3 -277 1 -10 214 -13 1030 -13 l1029 0 0
145 c0 80 -3 146 -6 146 -22 5 -2044 4 -2050 -1z"/>
</g>
</svg>
